<svg width="18" height="19" viewBox="0 0 18 19" fill="none" xmlns="http://www.w3.org/2000/svg">
<path d="M8.97486 0.0246433C5.98324 0.0246433 3.99721 4.18936 5.98324 6.18547C5.75698 6.35798 5.48045 6.53048 5.27933 6.72763L1.98603 5.10117C1.72806 4.95396 1.42507 4.90155 1.13128 4.95331C0.877854 5.01407 0.649991 5.15063 0.479297 5.34405C0.308604 5.53747 0.203539 5.77817 0.178672 6.03275C0.153806 6.28734 0.210371 6.5432 0.340523 6.76486C0.470675 6.98652 0.667963 7.16298 0.905028 7.26978L3.82123 8.64981C3.59497 9.0441 3.34358 9.46304 3.19274 9.88197H1.4581C1.38283 9.87531 1.30711 9.87531 1.23184 9.88197C1.06677 9.89653 0.906247 9.94283 0.759428 10.0182C0.612609 10.0936 0.482373 10.1966 0.376157 10.3213C0.26994 10.446 0.189823 10.59 0.140379 10.7451C0.0909346 10.9001 0.0731326 11.0632 0.0879888 11.225C0.102845 11.3868 0.150069 11.5442 0.226963 11.6881C0.303858 11.832 0.408918 11.9597 0.536145 12.0638C0.663371 12.1679 0.810273 12.2465 0.968463 12.2949C1.12665 12.3434 1.29303 12.3609 1.4581 12.3463H2.71508C2.71508 12.9131 2.76536 13.4553 2.86592 13.9728L0.905028 14.9831C0.728279 15.0337 0.565013 15.1217 0.426772 15.2409C0.288532 15.3601 0.178692 15.5076 0.10502 15.673C0.0313473 15.8384 -0.00435928 16.0176 0.000424393 16.198C0.00520807 16.3785 0.0503653 16.5556 0.132703 16.7171C0.215041 16.8785 0.33255 17.0202 0.476921 17.1322C0.621291 17.2442 0.788999 17.3238 0.968188 17.3652C1.14738 17.4067 1.33367 17.4091 1.5139 17.3722C1.69412 17.3353 1.86388 17.26 2.01117 17.1518L3.67039 16.3139C4.29888 17.4475 5.22905 18.4086 6.25978 19C7.13966 18.5318 7.74302 17.9157 7.74302 17.2257V13.677C7.74982 13.6033 7.74982 13.529 7.74302 13.4553V11.4591C7.78408 11.2807 7.78408 11.0955 7.74302 10.917C7.86871 10.3502 8.39665 9.90662 9 9.90662C9.70391 9.90662 10.257 10.4488 10.257 11.1388V13.3074C10.2502 13.3812 10.2502 13.4554 10.257 13.5292V13.677C10.2502 13.7508 10.2502 13.8251 10.257 13.8988V17.201C10.257 17.8664 10.8603 18.5071 11.7402 18.9754C12.7709 18.3593 13.7263 17.4228 14.3296 16.2892L15.9888 17.1271C16.1361 17.2354 16.3059 17.3106 16.4861 17.3475C16.6663 17.3844 16.8526 17.382 17.0318 17.3406C17.211 17.2991 17.3787 17.2196 17.5231 17.1076C17.6674 16.9956 17.785 16.8538 17.8673 16.6924C17.9496 16.531 17.9948 16.3538 17.9996 16.1734C18.0044 15.993 17.9687 15.8137 17.895 15.6483C17.8213 15.4829 17.7115 15.3354 17.5732 15.2162C17.435 15.097 17.2717 15.009 17.095 14.9585L15.1341 13.9481C15.2346 13.4306 15.2849 12.8885 15.2849 12.3217H16.5419C16.8753 12.3217 17.195 12.1918 17.4307 11.9608C17.6665 11.7297 17.7989 11.4163 17.7989 11.0895C17.7989 10.7627 17.6665 10.4493 17.4307 10.2182C17.195 9.98715 16.8753 9.85733 16.5419 9.85733H14.8073C14.6564 9.43839 14.405 9.01946 14.1788 8.62516L17.095 7.24514C17.3657 7.11316 17.5788 6.88995 17.6952 6.61644C17.8117 6.34293 17.8237 6.03744 17.729 5.75598C17.6343 5.47451 17.4393 5.23594 17.1797 5.08398C16.9201 4.93203 16.6133 4.87689 16.3156 4.92866C16.2 4.96233 16.09 5.01212 15.9888 5.07652L12.6955 6.70298C12.4693 6.50584 12.2179 6.33333 11.9916 6.16083C13.9525 4.11543 11.9916 0 9 0L8.97486 0.0246433Z" fill="black"/>
</svg>
