<svg width="13" height="15" viewBox="0 0 13 15" fill="none" xmlns="http://www.w3.org/2000/svg">
<path d="M6.5 0C5.98 0 5.57143 0.4125 5.57143 0.9375V1.875H4.17857C3.91857 1.875 3.71429 2.08125 3.71429 2.34375V3.75H9.28571V2.34375C9.28571 2.08125 9.08143 1.875 8.82143 1.875H7.42857V0.9375C7.42857 0.4125 7.02 0 6.5 0ZM0.464286 1.875C0.204286 1.875 0 2.08125 0 2.34375V14.5312C0 14.7937 0.204286 15 0.464286 15H12.5357C12.7957 15 13 14.7937 13 14.5312V2.34375C13 2.08125 12.7957 1.875 12.5357 1.875H11.1429V5.625H1.85714V1.875H0.464286Z" fill="black" fill-opacity="0.5"/>
</svg>
