<svg width="27" height="27" viewBox="0 0 27 27" fill="none" xmlns="http://www.w3.org/2000/svg">
<path d="M11.7065 0.0334472C5.25121 0.0334472 0 5.28466 0 11.74C0 18.1953 5.25121 23.4465 11.7065 23.4465C13.6799 23.4465 15.6198 22.9782 17.2588 22.0751C17.39 22.2331 17.5356 22.3787 17.6936 22.51L21.0383 25.8547C21.3471 26.2022 21.7237 26.4829 22.145 26.6796C22.5663 26.8763 23.0233 26.9848 23.488 26.9985C23.9527 27.0122 24.4153 26.9308 24.8474 26.7592C25.2795 26.5876 25.672 26.3295 26.0008 26.0008C26.3295 25.672 26.5876 25.2795 26.7592 24.8474C26.9308 24.4153 27.0122 23.9527 26.9985 23.488C26.9848 23.0233 26.8763 22.5663 26.6796 22.145C26.4829 21.7237 26.2022 21.3471 25.8547 21.0383L22.51 17.6936C22.347 17.5306 22.1677 17.3849 21.9748 17.2588C22.8779 15.6198 23.4465 13.7133 23.4465 11.7065C23.4465 5.25121 18.1953 0 11.74 0L11.7065 0.0334472ZM11.7065 3.37817C16.3557 3.37817 20.0683 7.0908 20.0683 11.74C20.0683 13.9475 19.2656 15.9878 17.8608 17.4929C17.8274 17.5263 17.7939 17.5598 17.7605 17.5932C17.6025 17.7245 17.4569 17.8701 17.3256 18.028C15.854 19.3659 13.8471 20.1352 11.6731 20.1352C7.02391 20.1352 3.31127 16.4226 3.31127 11.7734C3.31127 7.12425 7.02391 3.41161 11.6731 3.41161L11.7065 3.37817Z" fill="black"/>
</svg>
